# xmcd
#
# Track frame offsets:
#	150
#	12960
#	41997
#	64452
#	190222
#
# Disc length: 3218 seconds
#
# Revision: 1
# Processed by: cddbd v1.5.2PL0 Copyright (c) Steve Scherf et al.
# Submitted via: EasyCDDAExtractor 2010.6.0.0
#
DISCID=450c9005
DTITLE=第十七世 大寶法王 - 大寶法王在普提加耶
DYEAR=2004
DGENRE=Cult
TTITLE0=皈依文、四無量心
TTITLE1=大寶法王對憂鬱症的開示
TTITLE2=大手印傳承祈請文
TTITLE3=遙呼上師祈請文
TTITLE4=普賢行願偈
EXTD=
EXTT0=
EXTT1=
EXTT2=
EXTT3=
EXTT4=
PLAYORDER=
